<!--============================================================================
=
= Copyright (c) 2020–2021 Dominus Iniquitatis <zerosaiko@gmail.com>
=
= See LICENSE file for the licensing information
=
=============================================================================-->
<svg xmlns="http://www.w3.org/2000/svg" xmlns:xlink="http://www.w3.org/1999/xlink" version="1.1" width="57" height="57">
    <g fill="rgb(26, 26, 26)" stroke="rgb(26, 26, 26)" stroke-linecap="round" stroke-linejoin="round" stroke-width="1.5">
        <path d="M 28.5 42 C 26 43.5 23.5 45 20 45.5 C 16.5 46 12.9998 44.5 8.38281 46.543 C 6.84481 47.2234 6 48 5 49.5 L 9 54.5 C 12.5 52.5 14.5 52.0001 17.166 51.9395 C 22.999 51.8071 25 51 28.5 48 C 32 51 34.001 51.8071 39.834 51.9395 C 42.5 52.0001 44.5 52.5 48 54.5 L 52 49.5 C 51 48 50.1552 47.2234 48.6172 46.543 C 44.0002 44.5 40.5 46 37 45.5 C 33.5 45 31 43.5 28.5 42 Z" />
        <path d="M 28.5 12 C 21 12 12.532 19.3203 15 26.5 C 15.967 29.3124 19.3417 31.2694 19.2227 34.7246 C 19.1517 36.7619 17.4999 37.4998 17.4609 40.5566 C 20.4999 43 26 43 28.5 43 C 31 43 36.5001 43 39.5391 40.5566 C 39.5001 37.4998 37.8483 36.7619 37.7773 34.7246 C 37.6583 31.2694 41.033 29.3124 42 26.5 C 44.468 19.3203 36 12 28.5 12 Z" />
        <path d="M 28.5 2.69922 C 26.1252 2.69922 24.1992 4.62518 24.1992 7 C 24.1992 9.37482 26.1252 11.3008 28.5 11.3008 C 30.8748 11.3008 32.8008 9.37482 32.8008 7 C 32.8008 4.62518 30.8748 2.69922 28.5 2.69922 Z" fill="rgb(242, 242, 242)" />
        <path d="M 36.5 38 C 34.5 37.5 33 37 28.5 37 C 24 37 22.5 37.5 20.5 38 M 36 31.5 C 34 32 32 32.5 28.5 32.5 C 25 32.5 23 32 21 31.5" stroke="rgb(242, 242, 242)" />
    </g>
    <g stroke="rgb(242, 242, 242)" stroke-linecap="round" stroke-linejoin="round" stroke-width="2">
        <path d="M 28.5 26.5 V 18.5" />
        <path d="M 24.5 22.5 H 32.5" />
    </g>
</svg>
