<!--============================================================================
=
= Copyright (c) 2020–2021 Dominus Iniquitatis <zerosaiko@gmail.com>
=
= See LICENSE file for the licensing information
=
=============================================================================-->
<svg xmlns="http://www.w3.org/2000/svg" xmlns:xlink="http://www.w3.org/1999/xlink" version="1.1" width="57" height="57">
    <g fill="rgb(26, 26, 26)" stroke="rgb(26, 26, 26)" stroke-linecap="round" stroke-linejoin="round" stroke-width="1.5">
        <path d="M 28.5 13.5 C 23 13.5 21.5 20 23.5 23.5 C 25.534321 27.060062 26.5 27.5 28.5 28.5 C 30.5 27.5 31.465679 27.060062 33.5 23.5 C 35.5 20 34 13.5 28.5 13.5 Z" />
        <path d="M 14.820312 19.111328 C 6.2203135 18.911328 4.4665803 27.316466 7.0507812 30.550781 C 15.000781 40.500781 11.946362 47.557555 14.923828 50.234375 C 17.999564 52.999535 24 53 28.5 53 C 33 53 39.000436 52.999535 42.076172 50.234375 C 45.053638 47.557555 41.999219 40.500781 49.949219 30.550781 C 52.53342 27.316466 50.779686 18.911328 42.179688 19.111328 C 38.479337 19.197382 32 22.5 29 28 C 28.5 28.5 28.5 34.5 28.5 35.5 C 28.5 34.5 28.5 28.5 28 28 C 25 22.5 18.520663 19.197382 14.820312 19.111328 Z" />
        <path d="M 26 37.5 C 26 37.5 25.90855 30.269611 23.2625 26.08125 C 21 22.5 14.793623 20.093112 10.75 22.8 C 4.7 26.85 14.8 37.15 14.8 37.15 C 17.5 38.5 23 37.5 28.5 37.5 C 34 37.5 39.5 38.5 42.2 37.15 C 42.2 37.15 52.3 26.85 46.25 22.8 C 42.206377 20.093112 36 22.5 33.7375 26.08125 C 31.09145 30.269611 31 37.5 31 37.5" stroke="rgb(242, 242, 242)" />
        <path d="M 28.5 3.5 C 28 6.5 28 7.5 24.5 7.5 C 28 9 27 9 28.5 13 C 30 9 29 9 32.5 7.5 C 29 7.5 29 6.5 28.5 3.5 Z" />
        <path d="M 39.5 47.5 C 34.5 46 30.5 46 28.5 46 C 26.5 46 22.5 46 17.5 47.5" stroke="rgb(242, 242, 242)" />
    </g>
</svg>
