<!--============================================================================
=
= Copyright (c) 2020–2021 Dominus Iniquitatis <zerosaiko@gmail.com>
=
= See LICENSE file for the licensing information
=
=============================================================================-->
<svg xmlns="http://www.w3.org/2000/svg" xmlns:xlink="http://www.w3.org/1999/xlink" version="1.1" width="57" height="57">
    <g fill="rgb(26, 26, 26)" stroke="rgb(26, 26, 26)" stroke-linecap="round" stroke-linejoin="round" stroke-width="1.5">
        <path d="M 19 53 L 48.823 52.9116 C 48.823 52.9116 49.434 42.0793 48.354 36.5849 C 47.017 29.7787 45.005 25.3134 40.513 20.641 C 36.637 16.61 32.237 16.7098 28.405 15.7368 C 28.298 12.1384 27.709 11.2997 25.879 9.23936 C 24.395 12.4897 20.815 13.5695 18.403 15.8336 C 16.571 17.5861 14.811 19.2844 13.438 21.5938 C 10.84 25.9596 10.777 26.8644 10.25 28.5938 C 9.839 29.9434 5.59 37.403 5.863 39.077 C 6.183 41.0342 9.925 43.4394 11.256 42.3069 C 12.436 41.3028 13 41 13.5 40.5 C 13.204 42.0468 13.219 42.6875 13.18 43.2642 C 13.113 44.2735 14 44.5 14.472 44.9183 C 14.752 44.5506 15.337 43.8041 15.783 43.2576 C 17.542 41.1023 19.011 38.8067 21.163 36.8772 C 22.652 35.5422 24.656 34.6771 26.072 33.2652 C 28.182 31.1615 27.5 29 30.5 25.5 C 29.5 29.5 28.5 33 27.884 37.6906 C 26.925 40.0869 25.244 41.9554 23.54 43.8929 C 20.481 47.3694 19.161 49.4189 19 53 Z" />
        <path d="M 19.362 21.9385 C 18.788 21.7097 17.569 21.9748 16.695 22.7536 C 15.82 23.5325 15.291 24.8242 15.461 25.3155 C 15.631 25.8068 16.499 25.4984 17.338 25.0808 C 18.177 24.6633 18.987 24.1367 19.427 23.5129 C 19.867 22.8892 19.937 22.1674 19.362 21.9385 Z" fill="rgb(242, 242, 242)" stroke-width="1" />
        <path d="M 15.697 18.3917 C 15.837 15.6705 15.872 14.2946 14.969 10.142 C 16.896 10.326 19.86 11.4909 21.664 12.9925" />
        <path d="M 10.59 36.4488 C 10.369 36.2348 9.627 36.6781 9.283 37.0976 C 8.938 37.5171 8.851 38.0625 9.073 38.2756 C 9.294 38.4888 9.885 38.3973 10.211 38.0118 C 10.538 37.6264 10.81 36.6628 10.59 36.4488 Z" fill="rgb(242, 242, 242)" stroke-width="0.5" />
        <path d="M 31 19 C 42.5 22 47.5 38 46.5 49.5" fill="none" stroke="rgb(242, 242, 242)" stroke-width="2" />
    </g>
</svg>
