<!--============================================================================
=
= Copyright (c) 2020–2021 Dominus Iniquitatis <zerosaiko@gmail.com>
=
= See LICENSE file for the licensing information
=
=============================================================================-->
<svg xmlns="http://www.w3.org/2000/svg" xmlns:xlink="http://www.w3.org/1999/xlink" version="1.1" width="57" height="57">
    <g fill="rgb(26, 26, 26)" stroke="rgb(26, 26, 26)" stroke-linecap="round" stroke-linejoin="round" stroke-width="1.5">
        <path d="M 28.5 8 C 27 12.5 25.5 20.5 24 27 C 21.4988 23.2626 18.9875 18.234 17 10.5 C 16 15.5 15.5 21.5 15.5 29 C 12 26 9 20.5 6 15 C 6 21.5 7.5 29 9.5 35 C 9.5 35 16.5 39 15.5 42.5 C 14.9336 44.4822 13 45.5 13 50 C 16 52 19.5 53 28.5 53 C 37.5 53 41 52 44 50 C 44 45.5 42.0664 44.4822 41.5 42.5 C 40.5 39 47.5 35 47.5 35 C 49.5 29 51 21.5 51 15 C 48 20.5 45 26 41.5 29 C 41.5 21.5 41 15.5 40 10.5 C 38.0125 18.234 35.5012 23.2626 33 27 C 31.5 20.5 30 12.5 28.5 8 Z" />
        <path d="M 28.5 32 C 22 32 17 33 12 36.5 L 15 39.5 C 21 38 25 38 28.5 38 C 32 38 36 38 42 39.5 L 45 36.5 C 40 33 35 32 28.5 32 Z" fill="rgb(242, 242, 242)" />
        <path d="M 38.5 46.5 C 34.5 45.5 31.5 45.5 28.5 45.5 C 25.5 45.5 22.5 45.5 18.5 46.5" stroke="rgb(242, 242, 242)" />
        <path d="M 28.5 4.5 C 26.567 4.5 25 6.067 25 8 C 25 9.933 26.567 11.5 28.5 11.5 C 30.433 11.5 32 9.933 32 8 C 32 6.067 30.433 4.5 28.5 4.5 Z" fill="rgb(242, 242, 242)" />
        <path d="M 43.5 10.5 C 43.5 12.433 41.933 14 40 14 C 38.067 14 36.5 12.433 36.5 10.5 C 36.5 8.567 38.067 7 40 7 C 41.933 7 43.5 8.567 43.5 10.5 Z M 13.5 10.5 C 13.5 12.433 15.067 14 17 14 C 18.933 14 20.5 12.433 20.5 10.5 C 20.5 8.567 18.933 7 17 7 C 15.067 7 13.5 8.567 13.5 10.5 Z" fill="rgb(242, 242, 242)" />
        <path d="M 54.5 15 C 54.5 16.933 52.933 18.5 51 18.5 C 49.067 18.5 47.5 16.933 47.5 15 C 47.5 13.067 49.067 11.5 51 11.5 C 52.933 11.5 54.5 13.067 54.5 15 Z M 2.5 15 C 2.5 16.933 4.067 18.5 6 18.5 C 7.933 18.5 9.5 16.933 9.5 15 C 9.5 13.067 7.933 11.5 6 11.5 C 4.067 11.5 2.5 13.067 2.5 15 Z" fill="rgb(242, 242, 242)" />
    </g>
</svg>
