<!--============================================================================
=
= Copyright (c) 2020–2021 Dominus Iniquitatis <zerosaiko@gmail.com>
=
= See LICENSE file for the licensing information
=
=============================================================================-->
<svg xmlns="http://www.w3.org/2000/svg" xmlns:xlink="http://www.w3.org/1999/xlink" version="1.1" width="57" height="57">
    <g fill="rgb(242, 242, 242)" stroke="rgb(26, 26, 26)" stroke-linecap="round" stroke-linejoin="round" stroke-width="1.5">
        <path d="M 28.5 42 C 26 43.5 23.5 45 20 45.5 C 16.5 46 13 44.5 8.38281 46.543 C 6.84494 47.2234 6 48 5 49.5 L 9 54.5 C 12.5 52.5 14.5 52 17.166 51.9394 C 22.9989 51.807 25 51 28.5 48 C 32 51 34.0011 51.807 39.834 51.9394 C 42.5 52 44.5 52.5 48 54.5 L 52 49.5 C 51 48 50.1551 47.2234 48.6172 46.543 C 44 44.5 40.5 46 37 45.5 C 33.5 45 31 43.5 28.5 42 Z" />
        <path d="M 28.5 12 C 21 12 12.5318 19.3203 15 26.5 C 15.9668 29.3124 19.3424 31.2694 19.2227 34.7246 C 19.152 36.7619 17.5002 37.4998 17.4609 40.5566 C 20.5 43 26 43 28.5 43 C 31 43 36.5 43 39.5391 40.5566 C 39.4998 37.4998 37.848 36.7619 37.7773 34.7246 C 37.6576 31.2694 41.0332 29.3124 42 26.5 C 44.4682 19.3203 36 12 28.5 12 Z" />
        <path d="M 28.5 2.69922 C 26.1252 2.69922 24.1992 4.62517 24.1992 7 C 24.1992 9.37483 26.1252 11.3008 28.5 11.3008 C 30.8748 11.3008 32.8008 9.37483 32.8008 7 C 32.8008 4.62517 30.8748 2.69922 28.5 2.69922 Z" />
        <path d="M 39 38.5 C 36.5 37.5 33 37 28.5 37 C 24 37 20.5 37.5 18 38.5 M 39 31 C 35.5 32.5 32 32.5 28.5 32.5 C 25 32.5 21.5 32.5 18 31" />
    </g>
    <g stroke="rgb(26, 26, 26)" stroke-linecap="round" stroke-linejoin="round" stroke-width="2">
        <path d="M 28.5 26.5 V 18.5" />
        <path d="M 24.5 22.5 H 32.5" />
    </g>
</svg>
