<!--============================================================================
=
= Copyright (c) 2020–2021 Dominus Iniquitatis <zerosaiko@gmail.com>
=
= See LICENSE file for the licensing information
=
=============================================================================-->
<svg xmlns="http://www.w3.org/2000/svg" xmlns:xlink="http://www.w3.org/1999/xlink" version="1.1" width="57" height="57">
    <g fill="rgb(242, 242, 242)" stroke="rgb(26, 26, 26)" stroke-linecap="round" stroke-linejoin="round" stroke-width="1.5">
        <path d="M 28.5 13.5 C 23 13.5 21.5 20 23.5 23.5 C 25.5343 27.0601 26.5 27.5 28.5 28.5 C 30.5 27.5 31.4657 27.0601 33.5 23.5 C 35.5 20 34 13.5 28.5 13.5 Z" />
        <path d="M 14.820312 19.111328 C 6.2203145 18.911328 4.4665812 27.316481 7.0507812 30.550781 C 15.000781 40.500781 11.946428 47.557575 14.923828 50.234375 C 17.999628 52.999475 24 53 28.5 53 C 33 53 39.000372 52.999475 42.076172 50.234375 C 45.053572 47.557575 41.999219 40.500781 49.949219 30.550781 C 52.533419 27.316481 50.779686 18.911328 42.179688 19.111328 C 38.479287 19.197428 32 22.5 29 28 C 28.5 28.5 28.5 34.5 28.5 35.5 C 28.5 34.5 28.5 28.5 28 28 C 25 22.5 18.520713 19.197428 14.820312 19.111328 Z" />
        <path d="M 12 38 C 18.5 38.5 24 39.5 28.5 35.5 C 33 39.5 38.5 38.5 45 38" />
        <path d="M 28.5 3.5 C 28 6.5 28 7.5 24.5 7.5 C 28 9 27 9 28.5 13 C 30 9 29 9 32.5 7.5 C 29 7.5 29 6.5 28.5 3.5 Z" fill="rgb(26, 26, 26)" />
        <path d="M 42.5 49.5 C 39 46 30.5 46 28.5 46 C 26.5 46 18 46 14.5 49.5" />
    </g>
</svg>
