<!--============================================================================
=
= Copyright (c) 2020–2021 Dominus Iniquitatis <zerosaiko@gmail.com>
=
= See LICENSE file for the licensing information
=
=============================================================================-->
<svg xmlns="http://www.w3.org/2000/svg" xmlns:xlink="http://www.w3.org/1999/xlink" version="1.1" width="57" height="57">
    <g fill="rgb(242, 242, 242)" stroke="rgb(26, 26, 26)" stroke-linecap="round" stroke-linejoin="round" stroke-width="1.5">
        <path d="M 19 53 L 48.8232 52.9116 C 48.8232 52.9116 49.4339 42.0793 48.3545 36.5849 C 47.0174 29.7787 45.0049 25.3134 40.5127 20.641 C 36.6372 16.61 32.2369 16.7098 28.4049 15.7368 C 28.2984 12.1384 27.7088 11.2997 25.8793 9.23936 C 24.395 12.4897 20.8154 13.5695 18.403 15.8336 C 16.5713 17.5861 14.8114 19.2844 13.4375 21.5938 C 10.8401 25.9596 10.7765 26.8644 10.25 28.5938 C 9.83905 29.9434 5.58951 37.403 5.86297 39.077 C 6.1827 41.0342 9.92472 43.4394 11.2558 42.3069 C 12.4359 41.3028 13 41 13.5 40.5 C 13.2045 42.0468 13.2188 42.6875 13.1804 43.2642 C 13.1132 44.2735 14 44.5 14.4719 44.9183 C 14.7515 44.5506 15.3375 43.8041 15.7835 43.2576 C 17.5425 41.1023 19.0113 38.8067 21.1635 36.8772 C 22.6525 35.5422 24.6556 34.6771 26.0719 33.2652 C 28.1821 31.1615 27.5 29 30.5 25.5 C 29.5 29.5 28.5 33 27.8839 37.6906 C 26.9254 40.0869 25.2441 41.9554 23.5397 43.8929 C 20.4814 47.3694 19.1609 49.4189 19 53 Z" />
        <path d="M 19.3625 21.9385 C 18.7884 21.7097 17.5694 21.9748 16.6949 22.7536 C 15.8204 23.5325 15.2914 24.8242 15.4612 25.3155 C 15.631 25.8068 16.4988 25.4984 17.3377 25.0808 C 18.1765 24.6633 18.9868 24.1367 19.4267 23.5129 C 19.8666 22.8892 19.9366 22.1674 19.3625 21.9385 Z" stroke-width="1" />
        <path d="M 15.6974 18.3917 C 15.8374 15.6705 15.8717 14.2946 14.9685 10.142 C 16.8964 10.326 19.8604 11.4909 21.6639 12.9925" />
        <path d="M 10.5897 36.4488 C 10.3689 36.2348 9.62733 36.6781 9.28273 37.0976 C 8.93813 37.5171 8.85118 38.0625 9.07263 38.2756 C 9.29407 38.4888 9.88464 38.3973 10.2111 38.0118 C 10.5376 37.6264 10.8104 36.6628 10.5897 36.4488 Z" stroke-width="0.5" />
    </g>
</svg>
