<!--============================================================================
=
= Copyright (c) 2020–2021 Dominus Iniquitatis <zerosaiko@gmail.com>
=
= See LICENSE file for the licensing information
=
=============================================================================-->
<svg xmlns="http://www.w3.org/2000/svg" xmlns:xlink="http://www.w3.org/1999/xlink" version="1.1" width="57" height="57">
    <g fill="rgb(242, 242, 242)" stroke="rgb(26, 26, 26)" stroke-linecap="round" stroke-linejoin="round" stroke-width="1.5">
        <path d="M 28.5 10 C 26 10 23.5 11.5 23.5 14 C 23.5 16.5 25 18 26 18.5 C 23.5 20 19.5 22 19.5 26 C 19.5 30 20.8078 30.7669 24.0137 33.5176 C 21.0841 35.9419 17.2727 36.792 14.5332 42.4902 C 13.0901 45.4919 13.5 50.5 13.5 53 H 28.5 H 43.5 C 43.5 50.5 43.9099 45.4919 42.4668 42.4902 C 39.7273 36.792 35.9159 35.9419 32.9863 33.5176 C 36.1922 30.7669 37.5 30 37.5 26 C 37.5 22 33.5 20 31 18.5 C 32 18 33.5 16.5 33.5 14 C 33.5 11.5 31 10 28.5 10 Z" />
    </g>
</svg>
