<!--============================================================================
=
= Copyright (c) 2020 Dominus Iniquitatis <zerosaiko@gmail.com>
=
= See LICENSE file for the licensing information
=
=============================================================================-->
<svg xmlns="http://www.w3.org/2000/svg" xmlns:xlink="http://www.w3.org/1999/xlink" version="1.1" width="816" height="146">
    <defs>
        <linearGradient id="backgroundFadeGradient" x1="50%" y1="0%" x2="50%" y2="100%">
            <stop offset="0%" style="stop-color: CUI_PRM_COLOR(255, 255, 255); stop-opacity: 1.0" />
            <stop offset="100%" style="stop-color: CUI_PRM_COLOR(255, 255, 255); stop-opacity: 0.675" />
        </linearGradient>
        <mask id="backgroundFadeMask">
            <rect width="100%" height="100%" fill="url(#backgroundFadeGradient)" />
        </mask>
        <radialGradient id="shineGradient">
            <stop offset="98%" style="stop-color: CUI_PRM_COLOR(255, 255, 255); stop-opacity: 0.0" />
            <stop offset="100%" style="stop-color: CUI_PRM_COLOR(255, 255, 255); stop-opacity: 0.65" />
        </radialGradient>
        <linearGradient id="shineFadeGradient" x1="50%" y1="0%" x2="50%" y2="100%" gradientUnits="userSpaceOnUse">
            <stop offset="50%" style="stop-color: CUI_PRM_COLOR(255, 255, 255); stop-opacity: 1.0" />
            <stop offset="80%" style="stop-color: CUI_PRM_COLOR(255, 255, 255); stop-opacity: 0.2" />
        </linearGradient>
        <mask id="shineFadeMask">
            <rect width="100%" height="100%" fill="url(#shineFadeGradient)" />
        </mask>
        <svg id="dot" width="1" height="1">
            <circle cx="0.5" cy="0.5" r="0.5" />
        </svg>
        <svg id="heart" width="1" height="1">
            <path d="M 0.5 0.9375 c 0 0 -0.0773775 -0.1294099 -0.125 -0.1875 c -0.0373581 -0.0455696 -0.0833333 -0.0833333 -0.125 -0.125 c -0.0625 -0.0625 -0.15367524 -0.10583981 -0.1875 -0.1875 c -0.03189029 -0.07699 -0.03189029 -0.17301004 0 -0.25 c 0.02254984 -0.0544401 0.07055988 -0.10245016 0.125 -0.125 c 0.0577425 -0.02391771 0.12975753 -0.02391771 0.1875 0 c 0.0544401 0.02254984 0.125 0.125 0.125 0.125 c 0 0 0.0705599 -0.10245016 0.125 -0.125 c 0.0577425 -0.02391771 0.1297575 -0.02391771 0.1875 0 c 0.0544401 0.02254984 0.10245016 0.0705599 0.125 0.125 c 0.0318903 0.07699 0.0318903 0.17301 0 0.25 c -0.0338248 0.0816602 -0.125 0.125 -0.1875 0.1875 c -0.0416667 0.0416667 -0.0876419 0.0794304 -0.125 0.125 c -0.0476225 0.0580901 -0.125 0.1875 -0.125 0.1875 Z" />
        </svg>
        <svg id="rhombus" width="1" height="1">
            <path d="M 0.5 0.0 l 0.5 0.5 l -0.5 0.5 l -0.5 -0.5 Z" />
        </svg>
        <svg id="sparkle" width="1" height="1">
            <path d="M 0.5 0.0 l 0.125 0.375 l 0.375 0.125 l -0.375 0.125 l -0.125 0.375 l -0.125 -0.375 l -0.375 -0.125 l 0.375 -0.125 Z" />
        </svg>
        <svg id="star" width="1" height="1">
            <path d="M 0.5 0.05 l 0.1469463 0.29774575 l 0.32858195 0.0477458 l -0.23776413 0.23176273 l 0.0561285 0.32725426 l -0.29389262 -0.15450851 l -0.29389264 0.15450849 l 0.0561285 -0.32725424 l -0.23776412 -0.23176276 l 0.32858194 -0.0477457 Z" />
        </svg>
        <pattern id="pattern" x="-10" y="-10" width="46.5" height="46.5" patternUnits="userSpaceOnUse">
            <g fill="CUI_PRM_COLOR(255, 150, 198)" stroke-linejoin="round">
                <use xlink:href="#CUI_DLG_PTSHAPE()" transform="translate(2 2) scale(18.5)" />
                <use xlink:href="#CUI_DLG_PTSHAPE()" transform="translate(25.25 25.25) scale(18.5)" />
            </g>
        </pattern>
        <pattern id="backgroundMain" width="816" height="146" patternUnits="userSpaceOnUse">
            <rect width="816" height="146" fill="CUI_PRM_COLOR(255, 168, 210)" />
            <rect width="816" height="146" fill="url(#pattern)" />
            <circle cx="408" cy="2338" r="2250" fill="url(#shineGradient)" mask="url(#shineFadeMask)" />
        </pattern>
        <pattern id="backgroundFinal" width="816" height="146" patternUnits="userSpaceOnUse">
            <rect width="816" height="146" fill="url(#backgroundMain)" mask="url(#backgroundFadeMask)" />
        </pattern>
    </defs>
    <g fill="url(#backgroundFinal)" stroke="CUI_PRM_COLOR(255, 223, 238)" stroke-width="3">
        <rect x="1.5" y="1.5" width="813" height="143" rx="CUI_DLG_ROUNDING()" />
    </g>
</svg>
