<!--============================================================================
=
= Copyright (c) 2020–2021 Dominus Iniquitatis <zerosaiko@gmail.com>
=
= See LICENSE file for the licensing information
=
=============================================================================-->
<svg xmlns="http://www.w3.org/2000/svg" version="1.1" width="29" height="152">
    <g>
        <path d="M 0 0 V 152 H 29 V 0 Z" fill="rgb(61, 41, 46)" />
        <path d="M 9 143 C 7 143 5 143 4 147 L 2.66602 152 H 26.334 L 25 147 C 24 143 22 143 20 143 Z" fill="rgb(0, 0, 0)" fill-opacity="0.2" />
        <path d="M 0 0 V 152 H 1.63867 C 2.74491 147.804 4 142.685 4 141 V 0 Z" fill="rgb(0, 0, 0)" fill-opacity="0.2" />
        <path d="M 25 0 V 141 C 25 142.685 26.2551 147.804 27.3613 152 H 29 V 0 Z" fill="rgb(255, 255, 255)" fill-opacity="0.25" />
        <path d="M 5 0 V 139 C 5 141 6 142 8 142 H 21 C 23 142 24 141 24 139 V 0" fill="rgb(255, 255, 255)" fill-opacity="0.15" />
    </g>
</svg>
