<!--============================================================================
=
= Copyright (c) 2020–2021 Dominus Iniquitatis <zerosaiko@gmail.com>
=
= See LICENSE file for the licensing information
=
=============================================================================-->
<svg xmlns="http://www.w3.org/2000/svg" xmlns:xlink="http://www.w3.org/1999/xlink" version="1.1" width="1380" height="1320">
    <defs>
        <svg id="dot" width="1" height="1">
            <circle cx="0.5" cy="0.5" r="0.5" />
        </svg>
        <svg id="heart" width="1" height="1">
            <path d="M 0.5 0.9375 c 0 0 -0.0773775 -0.1294099 -0.125 -0.1875 c -0.0373581 -0.0455696 -0.0833333 -0.0833333 -0.125 -0.125 c -0.0625 -0.0625 -0.15367524 -0.10583981 -0.1875 -0.1875 c -0.03189029 -0.07699 -0.03189029 -0.17301004 0 -0.25 c 0.02254984 -0.0544401 0.07055988 -0.10245016 0.125 -0.125 c 0.0577425 -0.02391771 0.12975753 -0.02391771 0.1875 0 c 0.0544401 0.02254984 0.125 0.125 0.125 0.125 c 0 0 0.0705599 -0.10245016 0.125 -0.125 c 0.0577425 -0.02391771 0.1297575 -0.02391771 0.1875 0 c 0.0544401 0.02254984 0.10245016 0.0705599 0.125 0.125 c 0.0318903 0.07699 0.0318903 0.17301 0 0.25 c -0.0338248 0.0816602 -0.125 0.125 -0.1875 0.1875 c -0.0416667 0.0416667 -0.0876419 0.0794304 -0.125 0.125 c -0.0476225 0.0580901 -0.125 0.1875 -0.125 0.1875 Z" />
        </svg>
        <svg id="rhombus" width="1" height="1">
            <path d="M 0.5 0.0 l 0.5 0.5 l -0.5 0.5 l -0.5 -0.5 Z" />
        </svg>
        <svg id="sparkle" width="1" height="1">
            <path d="M 0.5 0.0 l 0.125 0.375 l 0.375 0.125 l -0.375 0.125 l -0.125 0.375 l -0.125 -0.375 l -0.375 -0.125 l 0.375 -0.125 Z" />
        </svg>
        <svg id="star" width="1" height="1">
            <path d="M 0.5 0.05 l 0.1469463 0.29774575 l 0.32858195 0.0477458 l -0.23776413 0.23176273 l 0.0561285 0.32725426 l -0.29389262 -0.15450851 l -0.29389264 0.15450849 l 0.0561285 -0.32725424 l -0.23776412 -0.23176276 l 0.32858194 -0.0477457 Z" />
        </svg>
        <pattern id="pattern" x="-40" y="-140" width="200" height="200" patternUnits="userSpaceOnUse">
            <g fill="CUI_PRM_COLOR(206, 74, 126)" stroke-linejoin="round">
                <use xlink:href="#CUI_MNU_PTSHAPE()" transform="translate(0 0) scale(80)" />
                <use xlink:href="#CUI_MNU_PTSHAPE()" transform="translate(100 100) scale(80)" />
            </g>
        </pattern>
    </defs>
    <rect x="0" y="0" width="1380" height="1320" fill="CUI_PRM_COLOR(27, 27, 27)" />
    <rect x="0" y="0" width="1680" height="1620" fill="url(#pattern)" />
</svg>
